<?xml version="1.0" encoding="UTF-8" standalone="no"?>
<svg
   version="1.1"
   width="280pt"
   height="50pt"
   id="svg18"
   viewBox="0 0 280 50"
   sodipodi:docname="BelatekRUS.svg"
   inkscape:version="1.4 (86a8ad7, 2024-10-11)"
   xmlns:inkscape="http://www.inkscape.org/namespaces/inkscape"
   xmlns:sodipodi="http://sodipodi.sourceforge.net/DTD/sodipodi-0.dtd"
   xmlns="http://www.w3.org/2000/svg"
   xmlns:svg="http://www.w3.org/2000/svg">
  <defs
     id="defs22" />
  <sodipodi:namedview
     id="namedview20"
     pagecolor="#ffffff"
     bordercolor="#000000"
     borderopacity="0.25"
     inkscape:showpageshadow="2"
     inkscape:pageopacity="0.0"
     inkscape:pagecheckerboard="0"
     inkscape:deskcolor="#d1d1d1"
     inkscape:document-units="pt"
     inkscape:zoom="3.0196108"
     inkscape:cx="215.92187"
     inkscape:cy="55.139556"
     inkscape:window-width="1920"
     inkscape:window-height="1009"
     inkscape:window-x="-8"
     inkscape:window-y="-8"
     inkscape:window-maximized="1"
     inkscape:current-layer="svg18" />
  <g
     id="Layer1000"
     transform="translate(-115.17035,-40.413035)" />
  <path
     d="M -113.68615,-2.4270352 V 69.227065 h 255.399 V -2.4270352 Z"
     style="fill:#1b1918;fill-opacity:0;fill-rule:evenodd"
     id="path3" />
  <g
     id="Layer1001"
     transform="translate(-182.26048,-52.180153)">
    <path
       d="m 200.4682,80.3918 c -3.0029,-4.8504 -6.4223,-9.5871 -10.1561,-14.2385 5.3767,2.3504 10.754,4.5199 16.1304,6.273 -0.7301,0.2986 -1.7715,0.7719 -2.5016,1.0705 5.2193,3.5264 12.0447,7.8298 18.7316,9.8821 4.9823,1.5294 9.697,2.2264 14.6868,0.722 2.593,-0.7819 5.4182,-3.294 7.6172,-5.302 -2.3236,3.6841 -5.6142,7.1303 -9.6584,8.6624 -4.0349,1.5285 -8.7869,1.0553 -12.9443,-0.0993 -7.4161,-2.0599 -14.4209,-5.6172 -21.109,-9.3598 -0.2656,0.7967 -0.5311,1.593 -0.7966,2.3896 z"
       style="fill:#45aade;fill-rule:evenodd;stroke:#ffffff;stroke-width:0.2835;stroke-linecap:butt;stroke-linejoin:round;stroke-dasharray:none"
       id="path7" />
    <path
       d="m 212.6106,58.6409 c 0.7759,-1.7414 2.2737,-4.5777 3.0495,-6.319 6.6535,2.1053 13.1719,4.1288 18.9143,7.8086 3.7799,2.4221 7.0708,5.9325 9.0609,9.9568 1.206,2.4392 1.2382,5.8674 -0.0497,8.2645 -1.5065,2.8035 -4.771,4.406 -7.5676,5.8249 2.1906,-1.726 4.7635,-3.8078 5.825,-6.5219 0.9035,-2.3106 1.1597,-5.2135 -0.4657,-7.0867 -3.6564,-4.2134 -8.9844,-6.4054 -14.0708,-8.6956 -4.4236,-1.9915 -9.6895,-3.0004 -14.6959,-3.2316 z"
       style="fill:#a7d442;fill-rule:evenodd;stroke:#ffffff;stroke-width:0.2835;stroke-linecap:butt;stroke-linejoin:round;stroke-dasharray:none"
       id="path9" />
    <path
       d="m 237.7645,90.4988 c 2.7957,-1.8501 4.3227,-3.6017 6.4717,-5.5766 -2.5223,1.7347 -5.0477,3.6747 -7.8409,4.5057 -4.139,1.2316 -8.2913,2.1448 -12.5712,1.5682 -5.3475,-0.7207 -10.7667,-2.4509 -15.2345,-5.4766 -4.68,-3.1696 -9.4594,-6.4385 -13.5918,-9.9565 0.8132,-0.4148 1.6264,-0.8297 2.4395,-1.2446 -5.2237,-2.1053 -10.2096,-4.5659 -15.0351,-7.2685 3.1955,4.8992 6.2643,9.8616 9.0614,14.9604 0.0497,-0.9459 0.0997,-1.8919 0.1494,-2.8378 6.505,4.4638 13.005,9.4555 20.4121,12.3469 5.2689,2.0565 11.1836,2.823 16.778,1.9915 2.8062,-0.4173 6.5372,-1.4084 8.9614,-3.0121 z"
       style="fill:#a7d442;fill-rule:evenodd;stroke:#ffffff;stroke-width:0.2835;stroke-linecap:butt;stroke-linejoin:round;stroke-dasharray:none"
       id="path11" />
    <path
       d="m 244.7278,95.5765 c 3.688,-4.1186 4.565,-9.7099 4.2318,-14.7864 -0.3812,4.929 -1.9828,9.7921 -5.3517,13.0688 -2.7123,2.6382 -7.0693,2.8628 -10.8534,2.8628 -3.2747,0 -7.1858,-1.4442 -9.5837,-2.9374 0.7466,-0.4315 1.4935,-0.8629 2.2402,-1.2943 -5.4348,-1.5734 -10.5135,-3.604 -15.4834,-5.7753 3.4119,4.5846 6.6791,9.2559 9.758,14.0395 0.249,-0.946 0.498,-1.8919 0.747,-2.8379 4.5801,1.6017 9.7261,2.6636 14.6368,2.1909 3.5396,-0.3408 7.2866,-1.882 9.6584,-4.5307 z"
       style="fill:#e91a26;fill-rule:evenodd;stroke:#ffffff;stroke-width:0.2835;stroke-linecap:butt;stroke-linejoin:round;stroke-dasharray:none"
       id="path13" />
    <path
       d="m 246.7702,86.1352 c -1.1485,1.7247 -3.1651,2.7845 -5.128,3.7169 1.9756,-1.3979 3.8735,-2.7882 4.8044,-4.879 0.8722,-1.9582 1.1425,-4.5624 0.2737,-6.522 -1.185,-2.6716 -3.4719,-4.9476 -6.024,-6.3726 -5.8909,-3.2888 -12.4978,-6.0543 -19.2672,-6.7709 -4.7294,-0.5006 -9.5588,-0.7388 -14.3382,-0.5476 l 3.8335,-8.0155 c 8.7787,1.9415 16.2665,4.2874 23.7976,7.9158 4.0466,1.9497 7.5416,5.1034 10.4053,8.5632 1.7384,2.1005 2.7352,4.2248 3.0495,6.9325 0.215,1.8501 -0.4585,4.5551 -1.4066,5.9792 z"
       style="fill:#3f60ac;fill-rule:evenodd;stroke:#ffffff;stroke-width:0.2835;stroke-linecap:butt;stroke-linejoin:round;stroke-dasharray:none"
       id="path15" />
  </g>
  <path
     style="font-weight:bold;font-size:32px;font-family:'Clear Sans';-inkscape-font-specification:'Clear Sans Bold';stroke-width:0.75;fill:#ffffff;fill-opacity:1"
     d="m 88.098328,21.700092 h 3.015625 q 4.46875,0 6.703125,1.765625 2.250002,1.75 2.250002,5.140625 0,3.171875 -2.093752,4.765625 -2.078125,1.578125 -6.734375,1.578125 h -7.546875 v -21.625 h 14.71875 v 3.609375 h -10.3125 z m 7.421875,6.625 q 0,-1.125 -0.46875,-1.78125 -0.453125,-0.65625 -1.390625,-0.9375 -0.9375,-0.28125 -3.03125,-0.28125 h -2.53125 v 6.015625 h 2.8125 q 2.21875,0 3.40625,-0.625 1.203125,-0.625 1.203125,-2.390625 z m 11.781247,-0.515625 q 0.10938,2.1875 1.0625,3.140625 0.95313,0.953125 3,0.953125 1.1875,0 2.07813,-0.296875 0.90625,-0.296875 1.57812,-1.140625 l 3,2.140625 q -0.98437,1.421875 -2.5625,2.125 -1.5625,0.703125 -4.28125,0.703125 -4.04687,0 -6.04687,-2.125 -1.98438,-2.125 -1.98438,-6.421875 0,-8.796875 7.875,-8.796875 3.5,0 5.32813,1.984375 1.84375,1.96875 1.84375,5.75 v 1.984375 z m 6.89063,-2.78125 q 0,-3.734375 -3.26563,-3.734375 -1.07812,0 -1.76562,0.375 -0.6875,0.359375 -1.10938,1.09375 -0.40625,0.71875 -0.64062,2.265625 z m 14.23437,-3.484375 v 1.015625 q 0,6.578125 -1.48437,9.625 -1.48438,3.046875 -4.84375,3.046875 -0.54688,0 -1.23438,-0.125 -0.6875,-0.125 -1.04687,-0.28125 l 0.70312,-2.921875 q 0.48438,0.140625 0.875,0.140625 1.67188,0 2.39063,-2.40625 0.73437,-2.421875 0.73437,-7.671875 v -3.40625 h 12.10938 v 16.390625 h -4 v -13.40625 z m 22.1875,13.40625 v -1.703125 q -2.39062,2.1875 -5.125,2.1875 -2.71875,0 -4.10937,-1.421875 -1.39063,-1.4375 -1.39063,-3.671875 0,-1.75 0.70313,-2.890625 0.71875,-1.140625 2.10937,-1.78125 1.40625,-0.65625 4.03125,-0.921875 l 3.45313,-0.328125 v -0.734375 q 0,-1.375 -0.82813,-1.875 -0.82812,-0.515625 -2.42187,-0.515625 -1.3125,0 -2.26563,0.4375 -0.9375,0.4375 -1.39062,1.25 l -3.14063,-2.015625 q 0.82813,-1.390625 2.59375,-2.125 1.76563,-0.75 4.26563,-0.75 3.82812,0 5.51562,1.34375 1.70313,1.328125 1.70313,4.375 v 11.140625 z m -0.32812,-7.609375 -2.04688,0.1875 q -2.17187,0.1875 -3.14062,0.828125 -0.95313,0.640625 -0.95313,1.921875 0,1.125 0.625,1.546875 0.625,0.40625 1.65625,0.40625 0.73438,0 1.78125,-0.453125 1.0625,-0.46875 2.07813,-1.3125 z m 21.29687,-5.859375 h -5.5625 v 13.46875 h -4 v -13.46875 h -5.60937 v -2.921875 h 15.17187 z m 5.375,6.328125 q 0.10938,2.1875 1.0625,3.140625 0.95313,0.953125 3,0.953125 1.1875,0 2.07813,-0.296875 0.90625,-0.296875 1.57812,-1.140625 l 3,2.140625 q -0.98437,1.421875 -2.5625,2.125 -1.5625,0.703125 -4.28125,0.703125 -4.04687,0 -6.04687,-2.125 -1.98438,-2.125 -1.98438,-6.421875 0,-8.796875 7.875,-8.796875 3.5,0 5.32813,1.984375 1.84375,1.96875 1.84375,5.75 v 1.984375 z m 6.89063,-2.78125 q 0,-3.734375 -3.26563,-3.734375 -1.07812,0 -1.76562,0.375 -0.6875,0.359375 -1.10938,1.09375 -0.40625,0.71875 -0.64062,2.265625 z m 11.42187,-6.46875 v 6.5 h 2.10938 q 0.79687,0 1.39062,-0.65625 0.59375,-0.671875 1.14063,-1.984375 0.54687,-1.3125 1.28125,-3.859375 h 4.125 q -0.875,3.21875 -1.90625,5.140625 -1.01563,1.921875 -2.40625,2.828125 1.01562,0.484375 1.71875,1.203125 0.70312,0.71875 1.23437,1.734375 0.53125,1 0.95313,2.359375 0.4375,1.359375 0.98437,3.125 h -4.125 q -0.54687,-1.703125 -1,-2.984375 -0.4375,-1.296875 -0.9375,-2.15625 -0.5,-0.875 -1.14062,-1.296875 -0.64063,-0.4375 -1.5625,-0.4375 h -1.85938 v 6.875 h -4 V 18.559467 Z m 22.71875,16.390625 v -1.703125 q -2.39062,2.1875 -5.125,2.1875 -2.71875,0 -4.10937,-1.421875 -1.39063,-1.4375 -1.39063,-3.671875 0,-1.75 0.70313,-2.890625 0.71875,-1.140625 2.10937,-1.78125 1.40625,-0.65625 4.03125,-0.921875 l 3.45313,-0.328125 v -0.734375 q 0,-1.375 -0.82813,-1.875 -0.82812,-0.515625 -2.42187,-0.515625 -1.3125,0 -2.26563,0.4375 -0.9375,0.4375 -1.39062,1.25 l -3.14063,-2.015625 q 0.82813,-1.390625 2.59375,-2.125 1.76563,-0.75 4.26563,-0.75 3.82812,0 5.51562,1.34375 1.70313,1.328125 1.70313,4.375 v 11.140625 z m -0.32812,-7.609375 -2.04688,0.1875 q -2.17187,0.1875 -3.14062,0.828125 -0.95313,0.640625 -0.95313,1.921875 0,1.125 0.625,1.546875 0.625,0.40625 1.65625,0.40625 0.73438,0 1.78125,-0.453125 1.0625,-0.46875 2.07813,-1.3125 z m 22.76562,2.71875 q 0,2.328125 -1.8125,3.609375 -1.8125,1.28125 -5.54687,1.28125 H 225.8952 V 18.559467 h 6.65625 q 3.57813,0 5.15625,0.90625 1.59375,0.890625 1.59375,3 0,1.40625 -0.8125,2.28125 -0.8125,0.859375 -1.875,1.3125 1.67188,0.34375 2.73438,1.296875 1.07812,0.9375 1.07812,2.703125 z m -5.15625,-6.953125 q 0,-0.984375 -0.79687,-1.328125 -0.79688,-0.359375 -2.375,-0.359375 h -2.20313 v 3.515625 h 2.375 q 1.6875,0 2.34375,-0.421875 0.65625,-0.4375 0.65625,-1.40625 z m 1,6.75 q 0,-1.203125 -0.875,-1.640625 -0.85937,-0.4375 -2.65625,-0.4375 h -2.84375 v 4.296875 h 2.34375 q 1.8125,0 2.92188,-0.4375 1.10937,-0.4375 1.10937,-1.78125 z m 20.85938,-8.375 h -5.5625 v 13.46875 h -4 v -13.46875 h -5.60938 v -2.921875 h 15.17188 z m 16.9375,5.3125 q 0,4.09375 -1.89063,6.375 -1.89062,2.265625 -5.95312,2.265625 -7.875,0 -7.875,-8.640625 0,-4.15625 1.89062,-6.421875 1.89063,-2.28125 5.98438,-2.28125 4.0625,0 5.95312,2.28125 1.89063,2.265625 1.89063,6.421875 z m -4.17188,0 q 0,-2.703125 -0.84375,-3.9375 -0.84375,-1.25 -2.82812,-1.25 -1.96875,0 -2.84375,1.28125 -0.875,1.265625 -0.875,3.90625 0,2.625 0.85937,3.875 0.875,1.234375 2.85938,1.234375 1.95312,0 2.8125,-1.21875 0.85937,-1.234375 0.85937,-3.890625 z"
     id="text1"
     aria-label="Белатекавто" />
</svg>
