<?xml version="1.0" encoding="UTF-8" standalone="no"?>
<svg
   version="1.1"
   width="280pt"
   height="50pt"
   id="svg18"
   viewBox="0 0 280 50"
   sodipodi:docname="BelatekRUS.svg"
   inkscape:version="1.4 (86a8ad7, 2024-10-11)"
   xmlns:inkscape="http://www.inkscape.org/namespaces/inkscape"
   xmlns:sodipodi="http://sodipodi.sourceforge.net/DTD/sodipodi-0.dtd"
   xmlns="http://www.w3.org/2000/svg"
   xmlns:svg="http://www.w3.org/2000/svg">
  <defs
     id="defs22" />
  <sodipodi:namedview
     id="namedview20"
     pagecolor="#ffffff"
     bordercolor="#000000"
     borderopacity="0.25"
     inkscape:showpageshadow="2"
     inkscape:pageopacity="0.0"
     inkscape:pagecheckerboard="0"
     inkscape:deskcolor="#d1d1d1"
     inkscape:document-units="pt"
     inkscape:zoom="3.0196108"
     inkscape:cx="215.5907"
     inkscape:cy="55.139557"
     inkscape:window-width="1920"
     inkscape:window-height="1009"
     inkscape:window-x="-8"
     inkscape:window-y="-8"
     inkscape:window-maximized="1"
     inkscape:current-layer="svg18" />
  <g
     id="Layer1000"
     transform="translate(-115.17035,-40.413035)" />
  <path
     d="M -113.68615,-2.4270352 V 69.227065 h 255.399 V -2.4270352 Z"
     style="fill:#1b1918;fill-opacity:0;fill-rule:evenodd"
     id="path3" />
  <g
     id="Layer1001"
     transform="translate(-182.26048,-52.180153)">
    <path
       d="m 200.4682,80.3918 c -3.0029,-4.8504 -6.4223,-9.5871 -10.1561,-14.2385 5.3767,2.3504 10.754,4.5199 16.1304,6.273 -0.7301,0.2986 -1.7715,0.7719 -2.5016,1.0705 5.2193,3.5264 12.0447,7.8298 18.7316,9.8821 4.9823,1.5294 9.697,2.2264 14.6868,0.722 2.593,-0.7819 5.4182,-3.294 7.6172,-5.302 -2.3236,3.6841 -5.6142,7.1303 -9.6584,8.6624 -4.0349,1.5285 -8.7869,1.0553 -12.9443,-0.0993 -7.4161,-2.0599 -14.4209,-5.6172 -21.109,-9.3598 -0.2656,0.7967 -0.5311,1.593 -0.7966,2.3896 z"
       style="fill:#45aade;fill-rule:evenodd;stroke:#ffffff;stroke-width:0.2835;stroke-linecap:butt;stroke-linejoin:round;stroke-dasharray:none"
       id="path7" />
    <path
       d="m 212.6106,58.6409 c 0.7759,-1.7414 2.2737,-4.5777 3.0495,-6.319 6.6535,2.1053 13.1719,4.1288 18.9143,7.8086 3.7799,2.4221 7.0708,5.9325 9.0609,9.9568 1.206,2.4392 1.2382,5.8674 -0.0497,8.2645 -1.5065,2.8035 -4.771,4.406 -7.5676,5.8249 2.1906,-1.726 4.7635,-3.8078 5.825,-6.5219 0.9035,-2.3106 1.1597,-5.2135 -0.4657,-7.0867 -3.6564,-4.2134 -8.9844,-6.4054 -14.0708,-8.6956 -4.4236,-1.9915 -9.6895,-3.0004 -14.6959,-3.2316 z"
       style="fill:#a7d442;fill-rule:evenodd;stroke:#ffffff;stroke-width:0.2835;stroke-linecap:butt;stroke-linejoin:round;stroke-dasharray:none"
       id="path9" />
    <path
       d="m 237.7645,90.4988 c 2.7957,-1.8501 4.3227,-3.6017 6.4717,-5.5766 -2.5223,1.7347 -5.0477,3.6747 -7.8409,4.5057 -4.139,1.2316 -8.2913,2.1448 -12.5712,1.5682 -5.3475,-0.7207 -10.7667,-2.4509 -15.2345,-5.4766 -4.68,-3.1696 -9.4594,-6.4385 -13.5918,-9.9565 0.8132,-0.4148 1.6264,-0.8297 2.4395,-1.2446 -5.2237,-2.1053 -10.2096,-4.5659 -15.0351,-7.2685 3.1955,4.8992 6.2643,9.8616 9.0614,14.9604 0.0497,-0.9459 0.0997,-1.8919 0.1494,-2.8378 6.505,4.4638 13.005,9.4555 20.4121,12.3469 5.2689,2.0565 11.1836,2.823 16.778,1.9915 2.8062,-0.4173 6.5372,-1.4084 8.9614,-3.0121 z"
       style="fill:#a7d442;fill-rule:evenodd;stroke:#ffffff;stroke-width:0.2835;stroke-linecap:butt;stroke-linejoin:round;stroke-dasharray:none"
       id="path11" />
    <path
       d="m 244.7278,95.5765 c 3.688,-4.1186 4.565,-9.7099 4.2318,-14.7864 -0.3812,4.929 -1.9828,9.7921 -5.3517,13.0688 -2.7123,2.6382 -7.0693,2.8628 -10.8534,2.8628 -3.2747,0 -7.1858,-1.4442 -9.5837,-2.9374 0.7466,-0.4315 1.4935,-0.8629 2.2402,-1.2943 -5.4348,-1.5734 -10.5135,-3.604 -15.4834,-5.7753 3.4119,4.5846 6.6791,9.2559 9.758,14.0395 0.249,-0.946 0.498,-1.8919 0.747,-2.8379 4.5801,1.6017 9.7261,2.6636 14.6368,2.1909 3.5396,-0.3408 7.2866,-1.882 9.6584,-4.5307 z"
       style="fill:#e91a26;fill-rule:evenodd;stroke:#ffffff;stroke-width:0.2835;stroke-linecap:butt;stroke-linejoin:round;stroke-dasharray:none"
       id="path13" />
    <path
       d="m 246.7702,86.1352 c -1.1485,1.7247 -3.1651,2.7845 -5.128,3.7169 1.9756,-1.3979 3.8735,-2.7882 4.8044,-4.879 0.8722,-1.9582 1.1425,-4.5624 0.2737,-6.522 -1.185,-2.6716 -3.4719,-4.9476 -6.024,-6.3726 -5.8909,-3.2888 -12.4978,-6.0543 -19.2672,-6.7709 -4.7294,-0.5006 -9.5588,-0.7388 -14.3382,-0.5476 l 3.8335,-8.0155 c 8.7787,1.9415 16.2665,4.2874 23.7976,7.9158 4.0466,1.9497 7.5416,5.1034 10.4053,8.5632 1.7384,2.1005 2.7352,4.2248 3.0495,6.9325 0.215,1.8501 -0.4585,4.5551 -1.4066,5.9792 z"
       style="fill:#3f60ac;fill-rule:evenodd;stroke:#ffffff;stroke-width:0.2835;stroke-linecap:butt;stroke-linejoin:round;stroke-dasharray:none"
       id="path15" />
  </g>
  <text
     xml:space="preserve"
     style="font-size:32px;text-align:start;writing-mode:lr-tb;direction:ltr;text-anchor:start;fill:#ffffff;fill-opacity:1;stroke-width:0.75"
     x="81.348328"
     y="34.950092"
     id="text1"><tspan
       sodipodi:role="line"
       id="tspan1"
       style="font-style:normal;font-variant:normal;font-weight:bold;font-stretch:normal;font-size:32px;font-family:'Clear Sans';-inkscape-font-specification:'Clear Sans Bold';fill:#ffffff;fill-opacity:1;stroke:none;stroke-width:0.75;stroke-opacity:1"
       x="81.348328"
       y="34.950092">Белатекавто</tspan></text>
</svg>
